PathFileType	4	(X/Y/Z)	/Users/niels/Desktop/University/Third Semester/Perception and Action/Exam/Gymnastics Motion Tracking/Code for Gym Tracking/Analyzed Data/Webcam_Backflip/id4_1_trajectory_Sports2D/id4_1_trajectory_Sports2D_px_person00.trc
DataRate	CameraRate	NumFrames	NumMarkers	Units	OrigDataRate	OrigDataStartFrame	OrigNumFrames
29.702970297029704	29.702970297029704	11	22	m	29.702970297029704	75	101
Frame#	Time	Hip			RHip			RKnee			RAnkle			RBigToe			RSmallToe			RHeel			LHip			LKnee			LAnkle			LBigToe			LSmallToe			LHeel			Neck			Head			Nose			RShoulder			RElbow			RWrist			LShoulder			LElbow			LWrist		
		X1	Y1	Z1	X2	Y2	Z2	X3	Y3	Z3	X4	Y4	Z4	X5	Y5	Z5	X6	Y6	Z6	X7	Y7	Z7	X8	Y8	Z8	X9	Y9	Z9	X10	Y10	Z10	X11	Y11	Z11	X12	Y12	Z12	X13	Y13	Z13	X14	Y14	Z14	X15	Y15	Z15	X16	Y16	Z16	X17	Y17	Z17	X18	Y18	Z18	X19	Y19	Z19	X20	Y20	Z20	X21	Y21	Z21	X22	Y22	Z22
75	2.525	1.0834679347773293	-0.639197495449	0.0	1.0601746813389719	-0.6395513794806145	0.0	1.0687236137065235	-0.7650616126447475	0.0	1.0822899280102094	-0.9040541876070278	0.0	1.103728894978208	-0.9215636271993428	0.0	1.0882344205224999	-0.9277579861768858	0.0	1.0790418252484302	-0.920266681946993	0.0	1.107125450527862	-0.6382018284355716	0.0	1.0903044570509741	-0.7561383463233371	0.0	1.038023854007107	-0.841973254745799	0.0	1.0714189350424421	-0.8898841231188379	0.0	1.074900688386404	-0.8769430906594734	0.0	1.022193200984111	-0.8507586689779224	0.0	1.0902597440727368	-0.43715839784225297	0.0	1.1057980683400654	-0.34943331135931543	0.0	1.1160796864425462	-0.40228211995002466	0.0	1.0406332049200593	-0.47115030326275403	0.0	1.0168617996763742	-0.5657846002402671	0.0	1.0258207291127146	-0.65555594491369	0.0	1.1296681680846823	-0.46094473234413325	0.0	1.133782214769842	-0.5479391178307068	0.0	1.1605334184530203	-0.6211449574867575	0.0
76	2.5586666666666664	1.0864787372329072	-0.6373486285908728	0.0	1.0612467130137386	-0.6386644867170949	0.0	1.0675307183441132	-0.7667691746775638	0.0	1.0814530656365566	-0.9044573178505771	0.0	1.1042929741738186	-0.9219395795238351	0.0	1.0884396117090944	-0.9287313228785427	0.0	1.0787264925668123	-0.9218601772270514	0.0	1.1114340830088771	-0.6365228457163823	0.0	1.106264224650264	-0.7555713140713302	0.0	1.0455876712108785	-0.8302688676424435	0.0	1.0725003839704719	-0.8862823512875087	0.0	1.0788728812346395	-0.87146089470948	0.0	1.0295381193784172	-0.8364184637368586	0.0	1.0895702862828383	-0.4324822933823958	0.0	1.103563570617722	-0.34393986144553074	0.0	1.112495513960843	-0.3986737940513548	0.0	1.0387289533396873	-0.4672201593670267	0.0	1.0163940944790362	-0.5630371624083456	0.0	1.0249997379298725	-0.653214058814419	0.0	1.1313414570589289	-0.4557289585853574	0.0	1.1353686464540838	-0.5446361233203866	0.0	1.1585152066653526	-0.6213838928998434	0.0
77	2.592333333333333	1.0891810581928756	-0.6350503254914039	0.0	1.0618742672736021	-0.6373434574042258	0.0	1.0664909424299716	-0.7674901826578571	0.0	1.0809459392796423	-0.9036249562904	0.0	1.1049547472450532	-0.9219219692476036	0.0	1.0884466467266283	-0.9288644880964049	0.0	1.078898733249443	-0.9221178990807939	0.0	1.1155902148538908	-0.6341521950961659	0.0	1.1233537135264768	-0.7539126144357592	0.0	1.0551708879775274	-0.8175947011536484	0.0	1.075805354209887	-0.8813319311150584	0.0	1.0836160560355628	-0.8645979630091334	0.0	1.0396783696564351	-0.821674593776147	0.0	1.0890508642026793	-0.42708925453566593	0.0	1.1017773305439258	-0.33770800844643994	0.0	1.1088231914311137	-0.3942858216646483	0.0	1.0368816980900608	-0.46252005841630683	0.0	1.0158878167458543	-0.5594804199514993	0.0	1.0243940055586127	-0.6499920589920243	0.0	1.1330445328183165	-0.4502633825390511	0.0	1.1367851056630216	-0.5407630107435099	0.0	1.1569840986103916	-0.6209042501550476	0.0
78	2.626	1.091667436828585	-0.6325048703088889	0.0	1.0623126228051556	-0.6357128224450095	0.0	1.0659203313190047	-0.7673277252788145	0.0	1.0809179824532091	-0.9018530795842351	0.0	1.1055997808548592	-0.9215842478953198	0.0	1.0882146767310221	-0.928043223277636	0.0	1.0796031709094875	-0.9209236565705736	0.0	1.1196094598497492	-0.631255666666697	0.0	1.1405038972381287	-0.7512148332783898	0.0	1.0666884665221494	-0.8058125617929601	0.0	1.082249402517337	-0.8755570820035827	0.0	1.090558162644242	-0.8572938789913808	0.0	1.052194423515624	-0.8085016395303884	0.0	1.08875268475638	-0.42142764395561094	0.0	1.1004787017119175	-0.33125966896119224	0.0	1.1055667275643284	-0.3892075578572562	0.0	1.0352434569781903	-0.4575619714434899	0.0	1.0152318489688477	-0.5555151477160322	0.0	1.0241397924380142	-0.6463574256504573	0.0	1.1349089710250777	-0.4450252013887817	0.0	1.1383291797902793	-0.5366434162974464	0.0	1.156453334912823	-0.6196949179691955	0.0
79	2.6596666666666664	1.0941165274236975	-0.6298740475593937	0.0	1.0629457103864726	-0.6339193058297732	0.0	1.0659774429284934	-0.766644334614158	0.0	1.0813706394626628	-0.8996067387839495	0.0	1.1061431542064684	-0.9208335869592782	0.0	1.0878917139640123	-0.9262679759533364	0.0	1.080653286424761	-0.9184913074323213	0.0	1.1235559932621269	-0.6280600476408589	0.0	1.1567959188258512	-0.7473855672348451	0.0	1.0801471976564276	-0.7966163243686711	0.0	1.092560714823819	-0.8695369129984819	0.0	1.101097110938958	-0.8505882674151058	0.0	1.066443631284733	-0.7984109732692455	0.0	1.0887139814183326	-0.4159571987137571	0.0	1.0996538522677348	-0.32514842187580406	0.0	1.1031176334185941	-0.38371418209810276	0.0	1.0339447177905041	-0.45279954420649543	0.0	1.0143697160655494	-0.5514509100191829	0.0	1.024212826892715	-0.6426520797368724	0.0	1.1370241803570056	-0.44037594243547895	0.0	1.140230461123139	-0.5326176900777767	0.0	1.157295723160967	-0.6178350535060574	0.0
80	2.6933333333333334	1.0966927367883652	-0.6272909065363002	0.0	1.0640707668009508	-0.632149280324232	0.0	1.066653460470658	-0.7658545796439963	0.0	1.082150680303003	-0.8973937676191135	0.0	1.1065511446655572	-0.9196359381966053	0.0	1.0875910637581605	-0.9237663320410822	0.0	1.081694273604983	-0.9153133975106053	0.0	1.1275186490849642	-0.624882440650491	0.0	1.1714429612882422	-0.7422239552092305	0.0	1.0955295055088599	-0.7911601953611767	0.0	1.1070008978670296	-0.8640876765133559	0.0	1.1158268163801683	-0.8454221620214681	0.0	1.0819827615711084	-0.7925169490448902	0.0	1.0890107506856983	-0.41105349246103634	0.0	1.0992896406300032	-0.3197648714411904	0.0	1.1016562196472266	-0.37822989341528146	0.0	1.0330695091037094	-0.44858540180852474	0.0	1.0133574907538405	-0.5475424161947952	0.0	1.024471168219531	-0.639123580952332	0.0	1.139449077685436	-0.43656514833112864	0.0	1.1426685880797554	-0.5290736201441408	0.0	1.1597322517661837	-0.6155119478690236	0.0
81	2.727	1.0994548084381013	-0.6248876602302318	0.0	1.065746583791455	-0.6306214371497252	0.0	1.0678637028888802	-0.7651982642894029	0.0	1.0830406135792783	-0.8956544034840378	0.0	1.1067210719990226	-0.9181808853071415	0.0	1.0872250153749767	-0.9210403983125239	0.0	1.0824303962326585	-0.9120666086560925	0.0	1.131536767538122	-0.6220540295282392	0.0	1.1838412466765917	-0.7356355659875591	0.0	1.1125525419623887	-0.790042762958426	0.0	1.1250525097281983	-0.8602245185551772	0.0	1.1342345700465561	-0.8426330341674556	0.0	1.098601102449413	-0.7916518363867134	0.0	1.0897611552865063	-0.40703358178998106	0.0	1.099391882587714	-0.31533906756850627	0.0	1.101127391132457	-0.37333390676808853	0.0	1.0326527043985814	-0.4451839182886016	0.0	1.0123462733906912	-0.5440487405362215	0.0	1.024740883980231	-0.635952865671161	0.0	1.1422014637392786	-0.4337367787341664	0.0	1.1458216244928983	-0.5263449441331568	0.0	1.1638204459468915	-0.6129271951651999	0.0
82	2.7606666666666664	1.1023314590473836	-0.6228057322294159	0.0	1.0678016528618508	-0.6295165248002594	0.0	1.0694899218648926	-0.7647125414832688	0.0	1.0838657877454503	-0.8946481886181338	0.0	1.1064196453494037	-0.9169223134615392	0.0	1.0866223417127878	-0.9188459542771601	0.0	1.082797506805887	-0.9094762912181238	0.0	1.135528972406957	-0.6197789676832518	0.0	1.193700560083734	-0.7277776982901206	0.0	1.1306536632758901	-0.7933142471135102	0.0	1.1455061061539449	-0.8587839204697532	0.0	1.1550422920866779	-0.8427896279830814	0.0	1.1160987768235515	-0.7961591864642348	0.0	1.0910772120602321	-0.4041676035010061	0.0	1.0999903854198543	-0.31199718407680066	0.0	1.1013653704304833	-0.3696234371686622	0.0	1.0327126811443046	-0.4427615038285023	0.0	1.011544804305193	-0.5412707446687438	0.0	1.0248994634944704	-0.6333119422575942	0.0	1.145254802887836	-0.4319073085764553	0.0	1.1498270886979893	-0.5246032079180674	0.0	1.1694290126163587	-0.6102377155196252	0.0
83	2.7943333333333333	1.1051873937483614	-0.6211751999989977	0.0	1.0700009502176764	-0.6289145446293251	0.0	1.0713838757766754	-0.7643740669937495	0.0	1.0845357851693085	-0.8944538558358606	0.0	1.1054305457185831	-0.9164501827292623	0.0	1.085687189808406	-0.9179908821857594	0.0	1.0829189990918249	-0.9081157265795589	0.0	1.1393423553428783	-0.6180872819016526	0.0	1.2010982459240718	-0.7191341189537223	0.0	1.149166486134158	-0.8004833691060452	0.0	1.1669131221217899	-0.8600329233057944	0.0	1.1768023282494684	-0.8459120362288436	0.0	1.1341765053421284	-0.8056841776869672	0.0	1.093003024165061	-0.4025687307073284	0.0	1.1011303915194541	-0.3097291952194392	0.0	1.102237270869909	-0.36741881209630206	0.0	1.033293201160916	-0.4413338872208061	0.0	1.0112077746864039	-0.5394844266890277	0.0	1.02491360386932	-0.6314507017161082	0.0	1.148602020869463	-0.4309793455327837	0.0	1.1546928084344419	-0.523848461912472	0.0	1.176271186037029	-0.6075909107029954	0.0
84	2.828	1.1079486797417128	-0.6200711555465477	0.0	1.072232421544326	-0.628778086325874	0.0	1.0734230508787834	-0.7642273712096005	0.0	1.0850348503886058	-0.8950702136624014	0.0	1.1038053691073724	-0.9171787971776871	0.0	1.0844462941896225	-0.9189341586042019	0.0	1.0829581315662933	-0.9082222541284108	0.0	1.1428999722193158	-0.616898966468628	0.0	1.206360798315361	-0.7106117506584022	0.0	1.1674290833872185	-0.8106186063142781	0.0	1.1879244226513435	-0.8635973039547566	0.0	1.1982248923008643	-0.8514463677703614	0.0	1.1524276089698313	-0.8191639562531052	0.0	1.0955096672561142	-0.4021327004867068	0.0	1.1028414706175806	-0.308353648324243	0.0	1.103673437995028	-0.3666428167719444	0.0	1.0344785665858565	-0.4407623751076291	0.0	1.0115976959444406	-0.5387724845045331	0.0	1.0248092986518025	-0.6306607078853834	0.0	1.1522964288828612	-0.43078673294746034	0.0	1.1602895684760153	-0.5239608354690503	0.0	1.183992680408194	-0.6051857190323902	0.0
85	2.8616666666666664	1.110703242467712	-0.6195134173268473	0.0	1.0745652515273822	-0.6289816165018185	0.0	1.0755479468644624	-0.7643760608238049	0.0	1.0854273297039212	-0.8963975940918163	0.0	1.1019758083817128	-0.9190707262328643	0.0	1.0831041554846483	-0.9215025605647638	0.0	1.0830424772968392	-0.9096314605138937	0.0	1.1462807593467599	-0.6161432608330207	0.0	1.2098937010888	-0.7035002315566559	0.0	1.1847616247964408	-0.8225481710000999	0.0	1.2074179782205852	-0.8688143597759674	0.0	1.2182490458740378	-0.8586067828973838	0.0	1.1702997900408332	-0.8350567877525753	0.0	1.0985696268271832	-0.4025769834801593	0.0	1.1051553614519887	-0.30756448431984773	0.0	1.1056830561398217	-0.3669342587055138	0.0	1.036369777707985	-0.44080590798826	0.0	1.0129056456153998	-0.5389200645858789	0.0	1.0246226425343679	-0.631059446362809	0.0	1.1564187005666346	-0.43112727933151374	0.0	1.1664362425415926	-0.5247572780177808	0.0	1.1922246563383843	-0.6033264534381126	0.0
